DBRep_DrawableShape

CASCADE Topology V3, (c) Open Cascade
Locations 0
Curve2ds 16
1 0 0 1 0 
1 300 0 0 1 
1 0 0 0 1 
7 0 0  1 2 2  0 1  300 1 
 0 2 150 2
1 0 0 0 1 
1 400 0 0 1 
1 0 0 1 0 
1 400 0 0 1 
1 0 0 0 1 
7 0 0  1 2 2  0 1  400 1 
 0 2 200 2
1 0 0 1 0 
1 300 0 0 1 
1 0 0 0 1 
7 0 0  1 2 2  0 1  300 1 
 0 2 150 2
1 0 0 1 0 
7 0 0  1 2 2  0 1  400 1 
 0 2 200 2
Curves 12
1 0 0 0 1 0 0 
7 0 0  1 2 2  300 0 0  150 0 100 
 0 2 1 2
1 0 0 100 1 0 0 
7 0 0  1 2 2  0 0 0  0 0 100 
 0 2 1 2
1 300 0 0 0 1 0 
7 0 0  1 2 2  300 400 0  150 200 100 
 0 2 1 2
1 150 0 100 0 1 0 
1 300 400 0 -1 0 0 
7 0 0  1 2 2  0 400 0  0 200 100 
 0 2 1 2
1 150 200 100 -1 0 0 
1 0 400 0 0 -1 0 
1 0 200 100 0 -1 0 
Polygon3D 0
PolygonOnTriangulations 24
2 1 2 
p 1.6000000008 1 0 300 
2 2 4 
p 1.6000000008 1 0 300 
2 2 3 
p 1.6000000008 1 0 1 
2 1 4 
p 1.6000000008 1 0 1 
2 4 3 
p 1.6000000008 1 0 150 
2 2 4 
p 1.6000000008 1 0 150 
2 1 4 
p 1.6000000008 1 0 1 
2 2 3 
p 1.6000000008 1 0 1 
2 1 2 
p 1.6000000008 1 0 400 
2 4 3 
p 1.6000000008 1 0 400 
2 2 3 
p 1.6000000008 1 0 1 
2 1 4 
p 1.6000000008 1 0 1 
2 4 3 
p 1.6000000008 1 0 200 
2 4 3 
p 1.6000000008 1 0 200 
2 1 2 
p 1.6000000008 1 0 300 
2 3 1 
p 1.6000000008 1 0 300 
2 2 3 
p 1.6000000008 1 0 1 
2 1 4 
p 1.6000000008 1 0 1 
2 4 3 
p 1.6000000008 1 0 150 
2 3 1 
p 1.6000000008 1 0 150 
2 1 2 
p 1.6000000008 1 0 400 
2 1 2 
p 1.6000000008 1 0 400 
2 4 3 
p 1.6000000008 1 0 200 
2 1 2 
p 1.6000000008 1 0 200 
Surfaces 6
9 0 0 0 0 1 1 2 2 2 2 0 0 0  0 0 100  
300 0 0  150 0 100  

0 2
300 2

0 2
1 2

1 0 0 0 0 0 -1 0.59999999999999998 0.80000000000000004 0 0.80000000000000004 -0.59999999999999998 0 
9 0 0 0 0 1 1 2 2 2 2 300 0 0  150 0 100  
300 400 0  150 200 100  

0 2
400 2

0 2
1 2

1 0 0 100 0 0 -1 0.59999999999999998 0.80000000000000004 0 0.80000000000000004 -0.59999999999999998 0 
9 0 0 0 0 1 1 2 2 2 2 0 400 0  0 200 100  
0 0 0  0 0 100  

0 2
400 2

0 2
1 2

9 0 0 0 0 1 1 2 2 2 2 300 400 0  150 200 100  
0 400 0  0 200 100  

0 2
300 2

0 2
1 2

Triangulations 6
17 28 1 0 7.03125
0 0 0 300 0 0 150 0 100 0 0 100 196.875 0 25 65.625 0 25 112.5 0 50 30.46875 0 37.5 213.28125 0 37.5 140.625 0 75 105.46875 0 87.5 46.875 0 75 147.65625 0 87.5 12.3046875 0 68.75 40.4296875 0 56.25 110.7421875 0 68.75 184.5703125 0 68.75 0 0 300 0 300 1 0 1 225 0.25 75 0.25 150 0.5 37.5 0.375 262.5 0.375 225 0.75 187.5 0.875 75 0.75 262.5 0.875 18.75 0.6875 56.25 0.5625 168.75 0.6875 281.25 0.6875 5 1 2 5 6 1 5 7 6 8 1 6 9 5 2 9 10 5 11 3 4 11 4 12 13 3 11 13 11 10 14 4 1 14 12 4 14 1 8 15 7 12 15 6 7 15 8 6 15 12 14 15 14 8 16 12 7 16 7 5 16 5 10 16 10 11 16 11 12 17 2 3 17 9 2 17 3 13 17 10 9 17 13 10 
4 2 1 0 6.35528743231302e-14
0 400 0 0 0 0 300 400 0 300 0 0 320 -240 0 0 500 0 180 240 3 2 1 3 4 2 
23 40 1 0 9.375
300 0 0 300 400 0 150 200 100 150 0 100 262.5 262.5 25 262.5 87.5 25 243.75 121.875 37.5 225 150 50 168.75 84.375 87.5 168.75 28.125 87.5 187.5 62.5 75 206.25 171.875 62.5 187.5 187.5 75 243.75 284.375 37.5 168.75 196.875 87.5 271.875 22.65625 18.75 243.75 40.625 37.5 196.875 16.40625 68.75 215.625 53.90625 56.25 215.625 89.84375 56.25 196.875 114.84375 68.75 196.875 246.09375 68.75 248.4375 10.3515625 34.375 0 0 400 0 400 1 0 1 300 0.25 100 0.25 150 0.375 200 0.5 150 0.875 50 0.875 100 0.75 250 0.625 300 0.75 350 0.375 350 0.875 25 0.1875 50 0.375 25 0.6875 75 0.5625 125 0.5625 175 0.6875 375 0.6875 12.5 0.34375 5 1 2 5 6 1 7 5 8 7 6 5 9 3 4 9 4 10 9 10 11 12 8 5 12 13 9 14 5 2 14 12 5 14 13 12 15 9 13 15 3 9 16 1 6 16 6 17 18 10 4 18 11 10 19 17 6 19 18 17 19 11 18 20 7 8 20 6 7 20 11 19 20 19 6 21 8 12 21 20 8 21 9 11 21 12 9 21 11 20 22 2 3 22 14 2 22 13 14 22 3 15 22 15 13 23 4 1 23 18 4 23 1 16 23 16 17 23 17 18 
4 2 1 0 3.17764371615651e-14
0 200 100 0 0 100 150 200 100 150 0 100 160 -120 0 0 250 0 90 120 3 2 1 3 4 2 
17 28 1 0 9.375
0 400 0 0 0 0 0 0 100 0 200 100 0 87.5 25 0 262.5 25 0 150 50 0 284.375 37.5 0 187.5 75 0 196.875 87.5 0 62.5 75 0 171.875 62.5 0 40.625 37.5 0 246.09375 68.75 0 53.90625 56.25 0 16.40625 68.75 0 10.3515625 34.375 0 0 400 0 400 1 0 1 300 0.25 100 0.25 200 0.5 50 0.375 100 0.75 50 0.875 300 0.75 150 0.625 350 0.375 25 0.6875 325 0.5625 375 0.6875 387.5 0.34375 5 1 2 5 6 1 5 7 6 8 1 6 8 6 9 10 3 4 10 11 3 10 9 11 12 9 6 12 6 7 12 11 9 12 7 11 13 5 2 14 4 1 14 10 4 14 1 8 14 8 9 14 9 10 15 7 5 15 11 7 15 5 13 16 3 11 16 11 15 16 15 13 17 2 3 17 13 2 17 3 16 17 16 13 
22 38 1 0 2.9296875
300 400 0 0 400 0 0 200 100 150 200 100 175.78125 375 12.5 196.875 350 25 65.625 350 25 213.28125 325 37.5 112.5 300 50 91.40625 325 37.5 128.90625 275 62.5 46.875 250 75 30.46875 325 37.5 63.28125 225 87.5 147.65625 225 87.5 140.625 250 75 21.09375 225 87.5 184.5703125 262.5 68.75 16.9921875 362.5 18.75 40.4296875 287.5 56.25 12.3046875 262.5 68.75 7.763671875 331.25 34.375 0 0 300 0 300 1 0 1 112.5 0.125 75 0.25 225 0.25 37.5 0.375 150 0.5 187.5 0.375 112.5 0.625 225 0.75 262.5 0.375 187.5 0.875 37.5 0.875 75 0.75 262.5 0.875 18.75 0.6875 281.25 0.1875 243.75 0.5625 281.25 0.6875 290.625 0.34375 5 1 2 5 6 1 5 2 7 8 1 6 8 6 9 10 9 6 10 5 7 10 6 5 11 9 12 11 8 9 13 10 7 14 3 4 14 4 15 14 11 12 14 16 11 14 15 16 17 3 14 17 14 12 18 4 1 18 15 4 18 1 8 18 11 16 18 8 11 18 16 15 19 7 2 19 13 7 20 9 10 20 12 9 20 10 13 21 3 17 21 17 12 21 12 20 22 2 3 22 21 20 22 20 13 22 19 2 22 13 19 22 3 21 

TShapes 34
Ve
1e-07
0 0 0
0 0

0101101
*
Ve
1e-07
300 0 0
0 0

0101101
*
Ed
 1e-07 1 1 0
1  1 0 0 300
2  1 1 0 0 300
4 C0 1 0 2 0
6  1 1 0
6  2 2 0
0

0101000
+34 0 -33 0 *
Ve
1e-07
150 0 100
0 0

0101101
*
Ed
 1e-07 1 1 0
1  2 0 0 1
2  2 1 0 0 1
2  3 3 0 0 1
4 C0 1 0 3 0
6  3 1 0
6  4 3 0
0

0101000
+33 0 -31 0 *
Ve
1e-07
0 0 100
0 0

0101101
*
Ed
 1e-07 1 1 0
1  3 0 0 150
2  4 1 0 0 150
4 C0 1 0 4 0
6  5 1 0
6  6 4 0
0

0101000
+29 0 -31 0 *
Ed
 1e-07 1 1 0
1  4 0 0 1
2  5 1 0 0 1
2  6 5 0 0 1
4 C0 1 0 5 0
6  7 1 0
6  8 5 0
0

0101000
+34 0 -29 0 *
Wi

0101000
+32 0 +30 0 -28 0 -27 0 *
Fa
0  1e-07 1 0
2  1
0111000
+26 0 *
Ve
1e-07
300 400 0
0 0

0101101
*
Ed
 1e-07 1 1 0
1  5 0 0 400
2  7 3 0 0 400
4 C0 3 0 2 0
6  9 3 0
6  10 2 0
0

0101000
+33 0 -24 0 *
Ve
1e-07
150 200 100
0 0

0101101
*
Ed
 1e-07 1 1 0
1  6 0 0 1
2  8 3 0 0 1
2  9 6 0 0 1
4 C0 3 0 6 0
6  11 3 0
6  12 6 0
0

0101000
+24 0 -22 0 *
Ed
 1e-07 1 1 0
1  7 0 0 200
2  10 3 0 0 200
4 C0 3 0 4 0
6  13 3 0
6  14 4 0
0

0101000
+31 0 -22 0 *
Wi

0101000
+23 0 +21 0 -20 0 -30 0 *
Fa
0  1e-07 3 0
2  3
0111000
+19 0 *
Ve
1e-07
0 400 0
0 0

0101101
*
Ed
 1e-07 1 1 0
1  8 0 0 300
2  11 6 0 0 300
4 C0 6 0 2 0
6  15 6 0
6  16 2 0
0

0101000
+24 0 -17 0 *
Ve
1e-07
0 200 100
0 0

0101101
*
Ed
 1e-07 1 1 0
1  9 0 0 1
2  12 6 0 0 1
2  13 5 0 0 1
4 C0 6 0 5 0
6  17 6 0
6  18 5 0
0

0101000
+17 0 -15 0 *
Ed
 1e-07 1 1 0
1  10 0 0 150
2  14 6 0 0 150
4 C0 6 0 4 0
6  19 6 0
6  20 4 0
0

0101000
+22 0 -15 0 *
Wi

0101000
+16 0 +14 0 -13 0 -21 0 *
Fa
0  1e-07 6 0
2  6
0111000
+12 0 *
Ed
 1e-07 1 1 0
1  11 0 0 400
2  15 5 0 0 400
4 C0 5 0 2 0
6  21 5 0
6  22 2 0
0

0101000
+17 0 -34 0 *
Ed
 1e-07 1 1 0
1  12 0 0 200
2  16 5 0 0 200
4 C0 5 0 4 0
6  23 5 0
6  24 4 0
0

0101000
+15 0 -29 0 *
Wi

0101000
+10 0 +27 0 -9 0 -14 0 *
Fa
0  1e-07 5 0
2  5
0111000
+8 0 *
Wi

0101100
+32 0 +23 0 +16 0 +10 0 *
Fa
0  1e-07 2 0
2  2
0111000
-6 0 *
Wi

0101100
+28 0 +20 0 +13 0 +9 0 *
Fa
0  1e-07 4 0
2  4
0111000
-4 0 *
Sh

0101100
+25 0 +18 0 +11 0 +7 0 +5 0 -3 0 *
So

1100100
+2 0 *

+1 0 